<?xml version="1.0" standalone="no"?>
<!DOCTYPE svg PUBLIC "-//W3C//DTD SVG 20010904//EN"
 "http://www.w3.org/TR/2001/REC-SVG-20010904/DTD/svg10.dtd">
<svg version="1.0" xmlns="http://www.w3.org/2000/svg"
 width="320.000000pt" height="320.000000pt" viewBox="0 0 320.000000 320.000000"
 preserveAspectRatio="xMidYMid meet">
<metadata>
Created by potrace 1.11, written by Peter Selinger 2001-2013
</metadata>
<g transform="translate(0.000000,320.000000) scale(0.100000,-0.100000)"
fill="#000000" stroke="none">
<path d="M1245 3119 c-261 -25 -500 -102 -670 -215 -246 -163 -394 -444 -462
-874 -15 -94 -18 -175 -18 -435 1 -288 3 -333 23 -447 106 -592 402 -881 1013
-988 158 -28 552 -39 746 -21 335 31 597 119 775 262 197 157 321 397 390 753
18 95 22 158 25 429 3 207 1 355 -7 420 -23 202 -73 384 -147 532 -175 349
-524 537 -1083 585 -136 12 -457 11 -585 -1z m473 -742 l132 -99 0 -89 c0 -49
-2 -89 -5 -89 -3 0 -65 45 -139 100 -73 55 -136 100 -140 100 -3 0 -66 -45
-140 -100 -73 -55 -136 -100 -139 -100 -4 0 -7 39 -7 88 l0 87 142 107 c79 58
147 104 153 100 5 -3 70 -51 143 -105z m-644 -489 c-4 -7 -48 -66 -96 -131
-49 -64 -91 -123 -94 -131 -3 -8 37 -71 95 -149 56 -73 101 -137 101 -141 0
-4 -39 -5 -87 -4 l-88 3 -107 141 -107 142 106 141 105 141 90 0 c69 0 87 -3
82 -12z m1239 -119 c54 -71 100 -136 103 -144 3 -7 -40 -74 -96 -149 l-102
-136 -89 0 c-49 0 -89 2 -89 5 0 3 46 66 101 140 l101 135 -101 135 c-55 74
-101 137 -101 140 0 3 39 5 88 5 l87 0 98 -131z m-887 -729 c74 -55 137 -100
140 -100 4 0 67 45 140 100 74 55 136 100 139 100 3 0 5 -39 5 -88 l0 -87
-142 -106 -142 -106 -142 106 -143 106 -1 88 c0 48 3 87 7 87 3 0 66 -45 139
-100z"/>
</g>
</svg>
